# xmcd
#
# Track frame offsets:
#	182
#	15312
#	33900
#	57307
#	69700
#	92002
#	109227
#	123767
#	142862
#	159907
#	173977
#	193322
#	203685
#
# Disc length: 2979 seconds
#
# Revision: 1
# Processed by: cddbd v1.4PL0 Copyright (c) Steve Scherf et al.
# Submitted via: EasyCDDAExtractor 5.0.6
#
DISCID=a80ba10d
DTITLE=Charlie Sayles - Night Ain't Right
DYEAR=1900
DGENRE=Blues
TTITLE0=Night Ain't Right
TTITLE1=Eli
TTITLE2=Small Room
TTITLE3=Down and Out
TTITLE4=There´s A Woman
TTITLE5=Automobile
TTITLE6=Kick Your Shoes Off
TTITLE7=Lamp Post
TTITLE8=Chromatic Blues
TTITLE9=Bill Monroe
TTITLE10=Headin´ Downtown
TTITLE11=South of The Border
TTITLE12=People
EXTD=
EXTT0=
EXTT1=
EXTT2=
EXTT3=
EXTT4=
EXTT5=
EXTT6=
EXTT7=
EXTT8=
EXTT9=
EXTT10=
EXTT11=
EXTT12=
PLAYORDER=
